<?xml version="1.0" encoding="utf-8"?>
<!-- Generator: Adobe Illustrator 21.0.0, SVG Export Plug-In . SVG Version: 6.00 Build 0)  -->
<svg version="1.1" id="Layer_1" xmlns="http://www.w3.org/2000/svg" xmlns:xlink="http://www.w3.org/1999/xlink" x="0px" y="0px"
	 viewBox="0 0 100 100" style="enable-background:new 0 0 100 100;" xml:space="preserve">
<style type="text/css">
	.st0{fill:#FFFFFF;}
</style>
<g>
	<path class="st0" d="M79.5,5H55.1C48.8,5,40.7,5.9,34,11.5c-5.1,4.4-7.6,10.4-7.6,15.8c0,9.2,7.1,18.5,19.6,18.5
		c1.2,0,2.5-0.1,3.8-0.2c-0.6,1.4-1.2,2.6-1.2,4.6c0,3.7,1.9,5.9,3.5,8c-5.3,0.4-15.2,0.9-22.6,5.4c-7,4.1-9.1,10.2-9.1,14.4
		c0,8.7,8.3,16.9,25.4,16.9C66.3,95,77,83.8,77,72.7c0-8.1-4.7-12.2-9.9-16.5l-4.3-3.3c-1.3-1.1-3.1-2.5-3.1-5.1
		c0-2.6,1.8-4.3,3.3-5.8c5-3.9,9.9-8,9.9-16.8c0-9-5.7-13.7-8.4-15.9h7.3L79.5,5z M69.1,77.3c0,7.3-6,12.8-17.4,12.8
		c-12.6,0-20.8-6-20.8-14.4c0-8.4,7.6-11.2,10.2-12.2c5-1.7,11.4-1.9,12.4-1.9c1.2,0,1.8,0,2.7,0.1C65.2,68.1,69.1,71.3,69.1,77.3
		 M59.6,39.2c-1.9,1.9-5.1,3.3-8,3.3c-10.2,0-14.8-13.1-14.8-21c0-3.1,0.6-6.3,2.6-8.7c1.9-2.4,5.2-3.9,8.3-3.9
		c9.8,0,14.9,13.2,14.9,21.7C62.6,32.8,62.4,36.5,59.6,39.2"/>
</g>
</svg>
