<svg xmlns="http://www.w3.org/2000/svg" width="57.167" height="65.037" viewBox="0 0 57.167 65.037"><defs><style>.a{fill:#fff;}</style></defs><g transform="translate(1695.992 -25.149)"><path class="a" d="M-1674.781,90.186c-1.268-.027-2.536-.063-3.8-.079-1.07-.013-2.141,0-3.365,0a3.987,3.987,0,0,1,2.217-1.169c1.035-.211,2.089-.329,3.125-.534a4.4,4.4,0,0,0,1.492-.488,9.139,9.139,0,0,1,3.586-1.171,10.7,10.7,0,0,0,1.814-.536.81.81,0,0,0,.568-.879c-.029-1.031-.009-2.064-.009-3.043h3.359c.047,1.031.137,1.976.117,2.92a1,1,0,0,0,.807,1.113c1,.264,2.015.46,3.021.7a2.933,2.933,0,0,1,1.024.313c1.541,1.1,3.357,1.2,5.126,1.474a5.031,5.031,0,0,1,2.807,1.255c-.309.017-.518.038-.728.039-1.885.008-3.77.01-5.656.022-.251,0-.5.044-.754.068Z"/><path class="a" d="M-1695.992,48.1h3.908q14.961,0,29.923,0a2.728,2.728,0,0,1,3.012,2.617,7.428,7.428,0,0,1-5.943,8.685c-.247.055-.493.113-.794.182,0,1.139-.006,2.278,0,3.418.015,2.372.022,4.744.066,7.115.009.522-.16.749-.673.721-.632-.035-1.264-.084-1.9-.1-.5-.015-.615-.26-.609-.733.042-2.943.054-5.887.075-8.83,0-.23,0-.461,0-.725-1.081-.154-2.128-.266-3.161-.456a22.694,22.694,0,0,1-10.573-5.214c-.908-.761-1.8-1.539-2.733-2.275a11.747,11.747,0,0,0-6.247-2.392,17.378,17.378,0,0,1-3.022-.659A1.908,1.908,0,0,1-1695.992,48.1Z"/><path class="a" d="M-1664.945,64.146c0-1.234-.022-2.334.023-3.431.007-.17.3-.418.5-.475a8.316,8.316,0,0,0,4.6-2.986,8.576,8.576,0,0,0,1.561-7.088,3.9,3.9,0,0,0-2.465-3.025,59.137,59.137,0,0,0-5.653-1.834,30.134,30.134,0,0,1-8.928-3.844,9.4,9.4,0,0,1-4.347-6.29c-1.257-6.984,4.32-10.442,9.134-9.984a6.191,6.191,0,0,1,5.037,2.861,7.344,7.344,0,0,1,.716,1.943,2.324,2.324,0,0,0,1.27,1.706,1.538,1.538,0,0,1,.923,1.536,10.9,10.9,0,0,1-1.049,4.665c-.487,1.007-1.1,1.151-1.966.438a7.762,7.762,0,0,1-2.555-4.146,1.882,1.882,0,0,1,.774-2.065c.892-.7.879-.756.408-1.8a4.924,4.924,0,0,0-4.926-2.9c-2.88.19-4.826,2.325-4.935,5.413-.109,3.122,1.65,5.581,4.906,6.9a51.491,51.491,0,0,0,7.482,1.913,46.1,46.1,0,0,1,5.772,1.656,7.975,7.975,0,0,1,5.289,6.519c.571,3.414.125,6.588-2.146,9.329a14.359,14.359,0,0,1-7.181,4.442C-1663.388,63.8-1664.093,63.938-1664.945,64.146Z"/><path class="a" d="M-1669.95,61.411c0,1.265.012,2.49-.017,3.714,0,.152-.2.328-.354.442-.4.306-.866.542-1.237.881a2.411,2.411,0,0,0-.233,3.562,5.08,5.08,0,0,0,3.438,1.718,9.194,9.194,0,0,0,5.207-.754,3.775,3.775,0,0,0,1.206-.895,1,1,0,0,0-.519-1.73,7.1,7.1,0,0,0-1.629-.11,4.8,4.8,0,0,0-.734.1V65.486a8.9,8.9,0,0,1,5.64.63,3.394,3.394,0,0,1,.876,5.364,9.969,9.969,0,0,1-4.937,2.846,11.784,11.784,0,0,1-7.058.224,10.084,10.084,0,0,1-4.045-2.432,6.023,6.023,0,0,1,.7-9.085A10.568,10.568,0,0,1-1669.95,61.411Z"/><path class="a" d="M-1638.825,48.146a2.266,2.266,0,0,1-1.717,1.458,23.3,23.3,0,0,1-3.235.6,11.866,11.866,0,0,0-6.62,3.065c-.635.547-1.277,1.088-2.036,1.735a14.683,14.683,0,0,0-.323-6.853Z"/><path class="a" d="M-1659.486,82.74c-1.706-.475-3.177-1.014-4.7-1.271a35.64,35.64,0,0,0-4.119-.2,6.276,6.276,0,0,1-5.883-7.587c.939.5,1.884,1,2.816,1.524a.5.5,0,0,1,.18.363,3.724,3.724,0,0,0,3,3.5c1.387.435,2.831.689,4.228,1.1a14.109,14.109,0,0,1,2.767,1.057A10.082,10.082,0,0,1-1659.486,82.74Z"/><path class="a" d="M-1665.868,78.789c-.948-.328-1.884-.628-2.8-.989a.8.8,0,0,1-.349-.575,10.094,10.094,0,0,1-.016-1.3h3.162Z"/><path class="a" d="M-1669.982,67.156v3.027c-.773-.359-1.4-.864-1.442-1.651S-1670.522,67.747-1669.982,67.156Z"/></g></svg>