<?xml version="1.0" encoding="utf-8"?>
<!-- Generator: Adobe Illustrator 21.0.0, SVG Export Plug-In . SVG Version: 6.00 Build 0)  -->
<svg version="1.1" id="Layer_1" xmlns="http://www.w3.org/2000/svg" xmlns:xlink="http://www.w3.org/1999/xlink" x="0px" y="0px"
	 viewBox="0 0 512 512" style="enable-background:new 0 0 512 512;" xml:space="preserve">
<style type="text/css">
	.st0{fill:#FFFFFF;}
</style>
<g>
	<path class="st0" d="M379.3,163.2c-60.2,0-69.7,29.6-84.8,52.9v1.1h-0.7c0.3-0.3,0.5-0.7,0.7-1.1v-48.3H181c1.5,32,0,341.4,0,341.4
		h113.5V318.4c0-10.3,0.7-20.4,3.7-27.7c8.2-20.3,9.4-41.6,40.7-41.6c41.1,0,57.5,31.4,57.5,77.2v182.7H510V313.4
		C510,208.5,454,163.2,379.3,163.2z"/>
	<path class="st0" d="M62.2,3C23.4,3-2,28.5-2,62c0,32.7,24.6,59,62.7,59h0.7c39.6,0,64.2-26.3,64.2-59C124.9,28.5,101,3,62.2,3z"/>
	<rect x="4.7" y="167.7" class="st0" width="113.5" height="341.4"/>
</g>
</svg>
